<svg width="133" height="33" viewBox="0 0 133 33" fill="none" xmlns="http://www.w3.org/2000/svg">
<path d="M32.0442 25.2699C30.5326 25.2699 29.255 25.027 28.2113 24.5411C27.1856 24.0553 26.3938 23.3625 25.836 22.4627C25.2961 21.545 24.9902 20.4563 24.9182 19.1966C24.9002 18.8367 24.8912 18.4318 24.8912 17.982C24.8912 17.5141 24.9002 17.1092 24.9182 16.7673C24.9902 15.4897 25.3141 14.401 25.8899 13.5012C26.4658 12.6015 27.2666 11.9087 28.2923 11.4228C29.336 10.9369 30.5866 10.694 32.0442 10.694C33.5198 10.694 34.7704 10.9369 35.7962 11.4228C36.8399 11.9087 37.6496 12.6015 38.2255 13.5012C38.8013 14.401 39.1252 15.4897 39.1972 16.7673C39.2152 17.1092 39.2242 17.5141 39.2242 17.982C39.2242 18.4318 39.2152 18.8367 39.1972 19.1966C39.1252 20.4563 38.8103 21.545 38.2525 22.4627C37.7126 23.3625 36.9208 24.0553 35.8771 24.5411C34.8514 25.027 33.5738 25.2699 32.0442 25.2699ZM32.0442 21.9768C32.854 21.9768 33.4388 21.7339 33.7987 21.2481C34.1766 20.7622 34.3926 20.0334 34.4465 19.0617C34.4645 18.7917 34.4735 18.4318 34.4735 17.982C34.4735 17.5321 34.4645 17.1722 34.4465 16.9023C34.3926 15.9485 34.1766 15.2287 33.7987 14.7429C33.4388 14.239 32.854 13.9871 32.0442 13.9871C31.2704 13.9871 30.6856 14.239 30.2897 14.7429C29.9118 15.2287 29.7049 15.9485 29.6689 16.9023C29.6509 17.1722 29.6419 17.5321 29.6419 17.982C29.6419 18.4318 29.6509 18.7917 29.6689 19.0617C29.7049 20.0334 29.9118 20.7622 30.2897 21.2481C30.6856 21.7339 31.2704 21.9768 32.0442 21.9768ZM48.5454 25.2699C47.0339 25.2699 45.7562 25.027 44.7125 24.5411C43.6868 24.0553 42.895 23.3625 42.3372 22.4627C41.7973 21.545 41.4914 20.4563 41.4194 19.1966C41.4014 18.8367 41.3924 18.4318 41.3924 17.982C41.3924 17.5141 41.4014 17.1092 41.4194 16.7673C41.4914 15.4897 41.8153 14.401 42.3912 13.5012C42.967 12.6015 43.7678 11.9087 44.7935 11.4228C45.8372 10.9369 47.0878 10.694 48.5454 10.694C50.021 10.694 51.2717 10.9369 52.2974 11.4228C53.3411 11.9087 54.1509 12.6015 54.7267 13.5012C55.3025 14.401 55.6264 15.4897 55.6984 16.7673C55.7164 17.1092 55.7254 17.5141 55.7254 17.982C55.7254 18.4318 55.7164 18.8367 55.6984 19.1966C55.6264 20.4563 55.3115 21.545 54.7537 22.4627C54.2138 23.3625 53.4221 24.0553 52.3784 24.5411C51.3526 25.027 50.075 25.2699 48.5454 25.2699ZM48.5454 21.9768C49.3552 21.9768 49.94 21.7339 50.2999 21.2481C50.6778 20.7622 50.8938 20.0334 50.9478 19.0617C50.9658 18.7917 50.9748 18.4318 50.9748 17.982C50.9748 17.5321 50.9658 17.1722 50.9478 16.9023C50.8938 15.9485 50.6778 15.2287 50.2999 14.7429C49.94 14.239 49.3552 13.9871 48.5454 13.9871C47.7717 13.9871 47.1868 14.239 46.7909 14.7429C46.413 15.2287 46.2061 15.9485 46.1701 16.9023C46.1521 17.1722 46.1431 17.5321 46.1431 17.982C46.1431 18.4318 46.1521 18.7917 46.1701 19.0617C46.2061 20.0334 46.413 20.7622 46.7909 21.2481C47.1868 21.7339 47.7717 21.9768 48.5454 21.9768ZM59.0813 25C58.8834 25 58.7214 24.937 58.5955 24.8111C58.4695 24.6671 58.4065 24.5051 58.4065 24.3252V6.51019C58.4065 6.31225 58.4695 6.15029 58.5955 6.02433C58.7214 5.89836 58.8834 5.83538 59.0813 5.83538H62.2125C62.3924 5.83538 62.5454 5.89836 62.6713 6.02433C62.8153 6.15029 62.8873 6.31225 62.8873 6.51019V15.5527L66.6392 11.4228C66.7472 11.2968 66.8641 11.1889 66.9901 11.0989C67.1161 11.0089 67.296 10.9639 67.53 10.9639H71.1469C71.3089 10.9639 71.4439 11.0269 71.5518 11.1529C71.6778 11.2609 71.7408 11.3958 71.7408 11.5578C71.7408 11.6298 71.7228 11.7107 71.6868 11.8007C71.6688 11.8907 71.6148 11.9627 71.5248 12.0166L66.6662 17.2532L72.1997 23.9743C72.3436 24.1182 72.4156 24.2532 72.4156 24.3792C72.4156 24.5591 72.3526 24.7121 72.2266 24.838C72.1187 24.946 71.9747 25 71.7948 25H68.0968C67.8269 25 67.6289 24.955 67.503 24.865C67.377 24.7571 67.26 24.6491 67.1521 24.5411L62.8873 19.4126V24.3252C62.8873 24.5051 62.8153 24.6671 62.6713 24.8111C62.5454 24.937 62.3924 25 62.2125 25H59.0813ZM79.6825 25.2699C78.5128 25.2699 77.5141 25.144 76.6863 24.892C75.8765 24.6221 75.2107 24.2982 74.6889 23.9203C74.185 23.5424 73.8071 23.1555 73.5552 22.7596C73.3032 22.3457 73.1683 21.9858 73.1503 21.6799C73.1323 21.482 73.1953 21.32 73.3392 21.1941C73.4832 21.0681 73.6362 21.0051 73.7981 21.0051H76.8752C76.9292 21.0051 76.9742 21.0141 77.0102 21.0321C77.0642 21.0501 77.1182 21.0861 77.1722 21.1401C77.4061 21.266 77.64 21.428 77.874 21.6259C78.1079 21.8059 78.3778 21.9679 78.6837 22.1118C78.9897 22.2558 79.3585 22.3278 79.7904 22.3278C80.2943 22.3278 80.7172 22.2288 81.0591 22.0308C81.401 21.8149 81.5719 21.518 81.5719 21.1401C81.5719 20.8522 81.4909 20.6182 81.329 20.4383C81.167 20.2403 80.8341 20.0514 80.3303 19.8714C79.8444 19.6915 79.1066 19.5115 78.1169 19.3316C77.1812 19.1157 76.3624 18.8367 75.6606 18.4948C74.9588 18.1349 74.4189 17.6761 74.041 17.1182C73.6631 16.5424 73.4742 15.8496 73.4742 15.0398C73.4742 14.32 73.7081 13.6272 74.176 12.9614C74.6439 12.2956 75.3277 11.7557 76.2274 11.3418C77.1272 10.91 78.2429 10.694 79.5745 10.694C80.6002 10.694 81.4999 10.82 82.2737 11.0719C83.0475 11.3058 83.6953 11.6118 84.2172 11.9897C84.739 12.3675 85.1349 12.7544 85.4048 13.1503C85.6748 13.5462 85.8187 13.9061 85.8367 14.23C85.8547 14.41 85.8007 14.5719 85.6748 14.7159C85.5488 14.8419 85.4048 14.9048 85.2429 14.9048H82.4357C82.3637 14.9048 82.2917 14.8958 82.2197 14.8778C82.1478 14.8419 82.0848 14.8059 82.0308 14.7699C81.8149 14.6619 81.5989 14.5179 81.383 14.338C81.167 14.158 80.9151 13.9961 80.6272 13.8521C80.3393 13.7082 79.9794 13.6362 79.5475 13.6362C79.0616 13.6362 78.6837 13.7442 78.4138 13.9601C78.1439 14.176 78.0089 14.455 78.0089 14.7969C78.0089 15.0308 78.0809 15.2467 78.2249 15.4447C78.3868 15.6426 78.7017 15.8226 79.1696 15.9845C79.6555 16.1465 80.4023 16.3264 81.41 16.5244C82.6516 16.7223 83.6413 17.0462 84.3791 17.4961C85.1169 17.928 85.6388 18.4408 85.9447 19.0347C86.2686 19.6105 86.4306 20.2223 86.4306 20.8702C86.4306 21.7339 86.1696 22.4987 85.6478 23.1645C85.1259 23.8303 84.3611 24.3522 83.3534 24.7301C82.3637 25.09 81.14 25.2699 79.6825 25.2699ZM95.953 25C94.8013 25 93.8026 24.8201 92.9568 24.4602C92.1291 24.0823 91.4902 23.5064 91.0404 22.7326C90.5905 21.9409 90.3655 20.9241 90.3655 19.6825V14.4999H88.2601C88.0622 14.4999 87.8912 14.437 87.7473 14.311C87.6213 14.185 87.5583 14.0231 87.5583 13.8251V11.6388C87.5583 11.4408 87.6213 11.2789 87.7473 11.1529C87.8912 11.0269 88.0622 10.9639 88.2601 10.9639H90.3655V6.51019C90.3655 6.31225 90.4285 6.15029 90.5545 6.02433C90.6985 5.89836 90.8604 5.83538 91.0404 5.83538H94.1715C94.3694 5.83538 94.5314 5.89836 94.6573 6.02433C94.7833 6.15029 94.8463 6.31225 94.8463 6.51019V10.9639H98.2203C98.4183 10.9639 98.5802 11.0269 98.7062 11.1529C98.8502 11.2789 98.9221 11.4408 98.9221 11.6388V13.8251C98.9221 14.0231 98.8502 14.185 98.7062 14.311C98.5802 14.437 98.4183 14.4999 98.2203 14.4999H94.8463V19.3046C94.8463 19.9164 94.9633 20.4023 95.1972 20.7622C95.4311 21.1221 95.827 21.302 96.3849 21.302H98.4633C98.6612 21.302 98.8232 21.365 98.9491 21.491C99.0751 21.617 99.1381 21.7789 99.1381 21.9768V24.3252C99.1381 24.5051 99.0751 24.6671 98.9491 24.8111C98.8232 24.937 98.6612 25 98.4633 25H95.953ZM107.851 25.2699C105.728 25.2699 104.036 24.6941 102.777 23.5424C101.517 22.3907 100.86 20.6812 100.806 18.4138C100.806 18.2879 100.806 18.1259 100.806 17.928C100.806 17.73 100.806 17.5771 100.806 17.4691C100.86 16.0475 101.175 14.8329 101.751 13.8251C102.345 12.7994 103.154 12.0256 104.18 11.5038C105.224 10.9639 106.439 10.694 107.824 10.694C109.408 10.694 110.712 11.0089 111.738 11.6388C112.782 12.2686 113.565 13.1233 114.086 14.203C114.608 15.2827 114.869 16.5154 114.869 17.901V18.5488C114.869 18.7468 114.806 18.9087 114.68 19.0347C114.554 19.1606 114.392 19.2236 114.194 19.2236H105.557C105.557 19.2416 105.557 19.2686 105.557 19.3046C105.557 19.3406 105.557 19.3766 105.557 19.4126C105.575 19.9344 105.665 20.4113 105.827 20.8432C106.007 21.275 106.259 21.617 106.583 21.8689C106.924 22.1208 107.338 22.2468 107.824 22.2468C108.184 22.2468 108.481 22.1928 108.715 22.0848C108.967 21.9589 109.174 21.8239 109.336 21.6799C109.498 21.518 109.624 21.383 109.714 21.275C109.876 21.0771 110.002 20.9601 110.092 20.9241C110.199 20.8702 110.361 20.8432 110.577 20.8432H113.924C114.104 20.8432 114.248 20.8972 114.356 21.0051C114.482 21.1131 114.536 21.2571 114.518 21.437C114.5 21.7429 114.347 22.1118 114.059 22.5437C113.771 22.9756 113.349 23.4074 112.791 23.8393C112.251 24.2532 111.567 24.5951 110.739 24.865C109.912 25.135 108.949 25.2699 107.851 25.2699ZM105.557 16.5514H110.119V16.4974C110.119 15.9036 110.029 15.3997 109.849 14.9858C109.687 14.5539 109.426 14.221 109.066 13.9871C108.724 13.7532 108.31 13.6362 107.824 13.6362C107.356 13.6362 106.951 13.7532 106.61 13.9871C106.268 14.221 106.007 14.5539 105.827 14.9858C105.647 15.3997 105.557 15.9036 105.557 16.4974V16.5514ZM118.075 30.1286C117.877 30.1286 117.715 30.0566 117.589 29.9126C117.463 29.7867 117.4 29.6337 117.4 29.4537V11.6388C117.4 11.4408 117.463 11.2789 117.589 11.1529C117.715 11.0269 117.877 10.9639 118.075 10.9639H121.125C121.305 10.9639 121.458 11.0269 121.584 11.1529C121.728 11.2789 121.799 11.4408 121.799 11.6388V12.6105C122.231 12.0706 122.789 11.6208 123.473 11.2609C124.157 10.883 124.994 10.694 125.983 10.694C126.883 10.694 127.675 10.838 128.359 11.1259C129.042 11.3958 129.627 11.8007 130.113 12.3406C130.617 12.8804 131.004 13.5372 131.274 14.311C131.544 15.0848 131.697 15.9755 131.733 16.9833C131.751 17.3432 131.76 17.6761 131.76 17.982C131.76 18.2879 131.751 18.6208 131.733 18.9807C131.697 19.9524 131.544 20.8252 131.274 21.599C131.004 22.3727 130.626 23.0296 130.14 23.5694C129.654 24.1093 129.06 24.5321 128.359 24.838C127.675 25.126 126.883 25.2699 125.983 25.2699C125.102 25.2699 124.328 25.117 123.662 24.8111C123.014 24.4871 122.474 24.0373 122.042 23.4614V29.4537C122.042 29.6337 121.979 29.7867 121.853 29.9126C121.728 30.0566 121.566 30.1286 121.368 30.1286H118.075ZM124.526 21.6529C125.138 21.6529 125.614 21.527 125.956 21.275C126.298 21.0231 126.541 20.6812 126.685 20.2493C126.847 19.8175 126.946 19.3406 126.982 18.8187C127.018 18.2609 127.018 17.703 126.982 17.1452C126.946 16.6234 126.847 16.1465 126.685 15.7146C126.541 15.2827 126.298 14.9408 125.956 14.6889C125.614 14.437 125.138 14.311 124.526 14.311C123.95 14.311 123.482 14.446 123.122 14.7159C122.762 14.9678 122.501 15.3007 122.339 15.7146C122.177 16.1285 122.078 16.5784 122.042 17.0642C122.024 17.4061 122.015 17.739 122.015 18.0629C122.015 18.3869 122.024 18.7288 122.042 19.0887C122.06 19.5385 122.159 19.9614 122.339 20.3573C122.519 20.7352 122.789 21.0501 123.149 21.302C123.509 21.536 123.968 21.6529 124.526 21.6529Z" fill="black"/>
<path fill-rule="evenodd" clip-rule="evenodd" d="M0.576256 4.99279C0.293165 5.05175 0.104152 5.22285 0.0248631 5.49194C0.00479057 5.56005 0.00362172 6.00928 0.000592346 14.8305C-0.00138748 20.6047 0.00166566 24.1361 0.00870239 24.1999C0.0288823 24.3826 0.0917597 24.5153 0.219482 24.6448C0.305557 24.732 0.403535 24.7872 0.529695 24.8195C0.620934 24.8428 0.690788 24.843 7.8743 24.8429C12.4779 24.8429 15.2204 24.8386 15.3832 24.8311C16.7983 24.7659 17.9117 24.5148 18.8956 24.0388C19.1862 23.8982 19.3555 23.8015 19.6291 23.6199C20.9126 22.7677 21.698 21.4957 21.9302 19.8934C21.9831 19.5285 21.9956 19.3327 21.996 18.8677C21.9963 18.5062 21.9922 18.3862 21.9746 18.2416C21.9056 17.6754 21.7776 17.2235 21.555 16.7603C21.375 16.3858 21.084 15.9433 20.8231 15.6476C20.5853 15.3781 20.2838 15.0984 20.0048 14.8885C19.5373 14.5367 18.8498 14.1901 18.1896 13.9733C17.4274 13.723 16.514 13.5652 15.6277 13.5307C15.5293 13.5269 15.4153 13.5208 15.3744 13.5173L15.3 13.5108L15.3986 13.3954C15.654 13.0966 15.8371 12.8193 16.0182 12.4571C16.2702 11.9534 16.3882 11.4848 16.4232 10.85C16.4449 10.4567 16.4175 9.95908 16.3499 9.51883C16.2088 8.59999 15.8539 7.76073 15.3279 7.10204C15.1834 6.92123 14.8371 6.57752 14.646 6.42545C13.54 5.54507 12.0802 5.09069 10.058 4.99732C9.80646 4.98571 0.631298 4.98132 0.576256 4.99279ZM9.08593 8.68228C9.72667 8.72933 10.2005 8.91551 10.5399 9.25357C10.9249 9.63707 11.1254 10.146 11.1254 10.7397C11.1254 11.296 10.9586 11.7701 10.6217 12.1715C10.3507 12.4944 9.97129 12.7077 9.49914 12.8027C9.1988 12.8631 9.27855 12.8609 7.21493 12.8652C5.35056 12.8692 5.2667 12.8684 5.27291 12.8481C5.27649 12.8364 5.32014 12.7156 5.36991 12.5795C5.61499 11.9097 5.75839 11.2703 5.75839 10.847C5.75839 10.3674 5.56594 9.58254 5.26355 8.82904L5.19989 8.6704L7.0624 8.67043C8.17655 8.67045 8.98961 8.67521 9.08593 8.68228ZM14.4768 16.4827C15.1377 16.5287 15.6283 16.729 16.01 17.1085C16.3572 17.4539 16.5721 17.8694 16.661 18.3668C16.6923 18.5422 16.7042 18.9174 16.6841 19.0946C16.6245 19.6196 16.3951 20.1066 16.0224 20.4993C15.6546 20.8868 15.1491 21.0982 14.4788 21.1449C14.1942 21.1648 5.13361 21.1626 5.14176 21.1427C5.26144 20.8505 5.32203 20.6954 5.38505 20.5199C5.61993 19.8659 5.75839 19.2377 5.75839 18.826C5.75839 18.2782 5.51233 17.3614 5.13022 16.4854C5.12183 16.4661 14.201 16.4635 14.4768 16.4827Z" fill="black"/>
</svg>
