<svg width="25" height="11" viewBox="0 0 25 11" fill="none" xmlns="http://www.w3.org/2000/svg">
<path d="M5.49887 11C4.51464 10.9998 3.54851 10.7355 2.70125 10.2347C1.85398 9.73382 1.15663 9.01481 0.68195 8.15262C0.207266 7.29043 -0.0273632 6.31667 0.00253961 5.3329C0.0324424 4.34913 0.325781 3.39141 0.851955 2.55965C1.37813 1.72788 2.11786 1.05255 2.99398 0.6041C3.8701 0.155649 4.8505 -0.0494887 5.83292 0.0100865C6.81533 0.0696618 7.76377 0.391767 8.57927 0.942801C9.39478 1.49383 10.0475 2.25361 10.4693 3.14286H21.9989L24.356 5.5L21.9989 7.85714L20.4274 6.28572L18.856 7.85714L17.2846 6.28572L15.7132 7.85714L14.1417 6.28572L12.5703 7.85714H10.4693C10.0232 8.79769 9.31925 9.59231 8.43939 10.1487C7.55954 10.705 6.53986 11.0002 5.49887 11ZM3.92744 7.07143C4.34421 7.07143 4.7439 6.90587 5.0386 6.61117C5.3333 6.31647 5.49887 5.91677 5.49887 5.5C5.49887 5.08323 5.3333 4.68353 5.0386 4.38883C4.7439 4.09413 4.34421 3.92857 3.92744 3.92857C3.51067 3.92857 3.11097 4.09413 2.81627 4.38883C2.52157 4.68353 2.35601 5.08323 2.35601 5.5C2.35601 5.91677 2.52157 6.31647 2.81627 6.61117C3.11097 6.90587 3.51067 7.07143 3.92744 7.07143Z" fill="black"/>
</svg>
